<?xml version="1.0"?>
<svg id="OBJECT" viewBox="0 0 512 512" xmlns="http://www.w3.org/2000/svg">
    <defs>
        <style>.cls-1{fill:#bddbff;}.cls-2{fill:#3d9ae2;}.cls-3{fill:#fff;}</style>
    </defs>
    <title />
    <circle class="cls-1" cx="256" cy="256" r="248.5" />
    <path class="cls-2"
        d="M256,512A256,256,0,0,1,75,75,256,256,0,0,1,437,437,254.33,254.33,0,0,1,256,512Zm0-497C123.11,15,15,123.11,15,256S123.11,497,256,497,497,388.89,497,256,388.89,15,256,15Z" />
    <circle class="cls-3" cx="256" cy="256" r="215" />
    <path class="cls-2"
        d="M256,478.5A222.5,222.5,0,0,1,98.67,98.67,222.5,222.5,0,1,1,413.33,413.33,221,221,0,0,1,256,478.5Zm0-430C141.58,48.5,48.5,141.58,48.5,256S141.58,463.5,256,463.5,463.5,370.42,463.5,256,370.42,48.5,256,48.5Z" />
    <circle class="cls-1" cx="256" cy="256" r="130" />
    <path class="cls-2"
        d="M256,393.5c-75.82,0-137.5-61.68-137.5-137.5S180.18,118.5,256,118.5,393.5,180.18,393.5,256,331.82,393.5,256,393.5Zm0-260A122.5,122.5,0,1,0,378.5,256,122.63,122.63,0,0,0,256,133.5Z" />
    <circle class="cls-3" cx="256" cy="256" r="80" />
    <path class="cls-2"
        d="M256,343.5A87.5,87.5,0,1,1,343.5,256,87.6,87.6,0,0,1,256,343.5Zm0-160A72.5,72.5,0,1,0,328.5,256,72.58,72.58,0,0,0,256,183.5Z" />
    <path class="cls-2" style="fill: #F56D01"
        d="M256,263.5a7.5,7.5,0,0,1-5.3-12.8L361.31,140.08a7.5,7.5,0,1,1,10.61,10.61L261.3,261.3A7.44,7.44,0,0,1,256,263.5Z" />
    <path class="cls-1" d="M437.32,74.68l-70.71,70.71-11.83-45A40,40,0,0,1,365.18,62L419.65,7.5Z" />
    <path class="cls-2" style="fill: #F56D01"
        d="M366.61,152.89a7.63,7.63,0,0,1-1.95-.26,7.51,7.51,0,0,1-5.3-5.34l-11.83-44.95a47.67,47.67,0,0,1,12.35-45.68L414.34,2.2A7.5,7.5,0,0,1,426.9,5.59l17.68,67.18A7.51,7.51,0,0,1,442.63,80l-70.71,70.71A7.54,7.54,0,0,1,366.61,152.89ZM415.72,22,370.49,67.27A32.58,32.58,0,0,0,362,98.52l8.5,32.33L429,72.42Z" />
    <path class="cls-1" d="M437.32,74.68l-70.71,70.71,45,11.83A40,40,0,0,0,450,146.82L504.5,92.35Z" />
    <path class="cls-2" style="fill: #F56D01"
        d="M421.68,166a47.37,47.37,0,0,1-12-1.55l-45-11.83a7.5,7.5,0,0,1-3.4-12.56L432,69.37a7.51,7.51,0,0,1,7.21-2L506.41,85.1a7.5,7.5,0,0,1,3.39,12.56l-54.46,54.46A47.68,47.68,0,0,1,421.68,166Zm-40.53-24.56,32.33,8.5a32.59,32.59,0,0,0,31.25-8.45L490,96.28,439.58,83Z" />
</svg>